# MagicaVoxel @ Ephtracy

# group
g CrossWithSidewalk

# material
mtllib CrossWithSidewalk.mtl
usemtl palette

# normals
vn -1 0 0
vn 1 0 0
vn 0 -1 0
vn 0 1 0
vn 0 0 -1
vn 0 0 1

# texcoords
vt 0.0449219 0.5
vt 0.958984 0.5
vt 0.970703 0.5
vt 0.974609 0.5
vt 0.990234 0.5

# verts
v 0 0 31
v 0 3 31
v 0 4 31
v 0 5 31
v 0 15 31
v 0 16 31
v 0 26 31
v 0 27 31
v 0 28 31
v 0 31 31
v 0 4 32
v 0 5 32
v 0 15 32
v 0 16 32
v 0 26 32
v 0 27 32
v 0 0 33
v 0 3 33
v 0 4 33
v 0 27 33
v 0 28 33
v 0 31 33
v 27 27 32
v 27 31 32
v 27 27 33
v 27 31 33
v 4 27 32
v 4 31 32
v 4 27 33
v 4 31 33
v 31 0 31
v 31 3 31
v 31 4 31
v 31 5 31
v 31 15 31
v 31 16 31
v 31 26 31
v 31 27 31
v 31 28 31
v 31 31 31
v 31 4 32
v 31 5 32
v 31 15 32
v 31 16 32
v 31 26 32
v 31 27 32
v 31 0 33
v 31 3 33
v 31 4 33
v 31 27 33
v 31 28 33
v 31 31 33
v 0 0 31
v 0 0 33
v 31 0 31
v 31 0 33
v 0 27 32
v 0 27 33
v 4 27 32
v 4 27 33
v 27 27 32
v 27 27 33
v 31 27 32
v 31 27 33
v 0 4 32
v 0 4 33
v 31 4 32
v 31 4 33
v 0 31 31
v 0 31 33
v 3 31 32
v 3 31 33
v 4 31 31
v 4 31 32
v 4 31 33
v 5 31 31
v 5 31 32
v 15 31 31
v 15 31 32
v 16 31 31
v 16 31 32
v 26 31 31
v 26 31 32
v 27 31 31
v 27 31 32
v 27 31 33
v 28 31 32
v 28 31 33
v 31 31 31
v 31 31 33
v 0 0 31
v 31 0 31
v 0 3 31
v 31 3 31
v 0 4 31
v 31 4 31
v 0 5 31
v 15 5 31
v 16 5 31
v 31 5 31
v 0 15 31
v 15 15 31
v 16 15 31
v 31 15 31
v 0 16 31
v 15 16 31
v 16 16 31
v 31 16 31
v 0 26 31
v 5 26 31
v 26 26 31
v 31 26 31
v 0 27 31
v 4 27 31
v 27 27 31
v 31 27 31
v 0 28 31
v 4 28 31
v 27 28 31
v 31 28 31
v 0 31 31
v 4 31 31
v 5 31 31
v 15 31 31
v 16 31 31
v 26 31 31
v 27 31 31
v 31 31 31
v 0 4 32
v 31 4 32
v 0 5 32
v 15 5 32
v 16 5 32
v 31 5 32
v 0 15 32
v 15 15 32
v 16 15 32
v 31 15 32
v 0 16 32
v 15 16 32
v 16 16 32
v 31 16 32
v 0 26 32
v 5 26 32
v 26 26 32
v 31 26 32
v 0 27 32
v 4 27 32
v 27 27 32
v 31 27 32
v 4 31 32
v 5 31 32
v 15 31 32
v 16 31 32
v 26 31 32
v 27 31 32
v 0 0 33
v 31 0 33
v 0 3 33
v 31 3 33
v 0 4 33
v 31 4 33
v 0 27 33
v 4 27 33
v 27 27 33
v 31 27 33
v 0 28 33
v 3 28 33
v 28 28 33
v 31 28 33
v 0 31 33
v 3 31 33
v 4 31 33
v 27 31 33
v 28 31 33
v 31 31 33

# faces
f 11/3/1 3/3/1 2/3/1
f 11/1/1 4/1/1 3/1/1
f 12/5/1 5/5/1 4/5/1
f 12/1/1 4/1/1 11/1/1
f 13/2/1 6/2/1 5/2/1
f 13/5/1 5/5/1 12/5/1
f 14/5/1 7/5/1 6/5/1
f 14/2/1 6/2/1 13/2/1
f 15/1/1 8/1/1 7/1/1
f 15/5/1 7/5/1 14/5/1
f 16/3/1 9/3/1 8/3/1
f 16/1/1 8/1/1 15/1/1
f 17/4/1 2/4/1 1/4/1
f 18/3/1 11/3/1 2/3/1
f 18/4/1 2/4/1 17/4/1
f 19/3/1 11/3/1 18/3/1
f 20/3/1 9/3/1 16/3/1
f 21/4/1 10/4/1 9/4/1
f 21/3/1 9/3/1 20/3/1
f 22/4/1 10/4/1 21/4/1
f 25/3/1 24/3/1 23/3/1
f 26/3/1 24/3/1 25/3/1
f 27/3/2 28/3/2 29/3/2
f 29/3/2 28/3/2 30/3/2
f 32/3/2 33/3/2 41/3/2
f 33/1/2 34/1/2 41/1/2
f 34/5/2 35/5/2 42/5/2
f 41/1/2 34/1/2 42/1/2
f 35/2/2 36/2/2 43/2/2
f 42/5/2 35/5/2 43/5/2
f 36/5/2 37/5/2 44/5/2
f 43/2/2 36/2/2 44/2/2
f 37/1/2 38/1/2 45/1/2
f 44/5/2 37/5/2 45/5/2
f 38/3/2 39/3/2 46/3/2
f 45/1/2 38/1/2 46/1/2
f 31/4/2 32/4/2 47/4/2
f 32/3/2 41/3/2 48/3/2
f 47/4/2 32/4/2 48/4/2
f 48/3/2 41/3/2 49/3/2
f 46/3/2 39/3/2 50/3/2
f 39/4/2 40/4/2 51/4/2
f 50/3/2 39/3/2 51/3/2
f 51/4/2 40/4/2 52/4/2
f 55/4/3 54/4/3 53/4/3
f 56/4/3 54/4/3 55/4/3
f 59/3/3 58/3/3 57/3/3
f 60/3/3 58/3/3 59/3/3
f 63/3/3 62/3/3 61/3/3
f 64/3/3 62/3/3 63/3/3
f 65/3/4 66/3/4 67/3/4
f 67/3/4 66/3/4 68/3/4
f 69/4/4 70/4/4 71/4/4
f 71/4/4 70/4/4 72/4/4
f 69/4/4 71/4/4 73/4/4
f 71/3/4 72/3/4 74/3/4
f 73/4/4 71/4/4 74/4/4
f 74/3/4 72/3/4 75/3/4
f 73/1/4 74/1/4 76/1/4
f 76/1/4 74/1/4 77/1/4
f 76/5/4 77/5/4 78/5/4
f 78/5/4 77/5/4 79/5/4
f 78/2/4 79/2/4 80/2/4
f 80/2/4 79/2/4 81/2/4
f 80/5/4 81/5/4 82/5/4
f 82/5/4 81/5/4 83/5/4
f 82/1/4 83/1/4 84/1/4
f 84/1/4 83/1/4 85/1/4
f 84/4/4 85/4/4 87/4/4
f 85/3/4 86/3/4 87/3/4
f 87/3/4 86/3/4 88/3/4
f 84/4/4 87/4/4 89/4/4
f 87/4/4 88/4/4 89/4/4
f 89/4/4 88/4/4 90/4/4
f 93/4/5 92/4/5 91/4/5
f 94/4/5 92/4/5 93/4/5
f 95/3/5 94/3/5 93/3/5
f 96/3/5 94/3/5 95/3/5
f 97/1/5 96/1/5 95/1/5
f 98/1/5 96/1/5 97/1/5
f 99/1/5 96/1/5 98/1/5
f 100/1/5 96/1/5 99/1/5
f 101/5/5 98/5/5 97/5/5
f 102/2/5 99/2/5 98/2/5
f 102/5/5 98/5/5 101/5/5
f 103/5/5 100/5/5 99/5/5
f 103/2/5 99/2/5 102/2/5
f 104/5/5 100/5/5 103/5/5
f 105/2/5 102/2/5 101/2/5
f 105/2/5 103/2/5 102/2/5
f 105/2/5 104/2/5 103/2/5
f 106/2/5 104/2/5 105/2/5
f 107/2/5 104/2/5 106/2/5
f 108/2/5 104/2/5 107/2/5
f 109/5/5 106/5/5 105/5/5
f 110/5/5 106/5/5 109/5/5
f 111/5/5 108/5/5 107/5/5
f 112/5/5 108/5/5 111/5/5
f 113/1/5 110/1/5 109/1/5
f 114/1/5 110/1/5 113/1/5
f 115/1/5 112/1/5 111/1/5
f 116/1/5 112/1/5 115/1/5
f 117/3/5 114/3/5 113/3/5
f 118/1/5 110/1/5 114/1/5
f 118/3/5 114/3/5 117/3/5
f 119/1/5 115/1/5 111/1/5
f 119/3/5 116/3/5 115/3/5
f 120/3/5 116/3/5 119/3/5
f 121/4/5 118/4/5 117/4/5
f 122/1/5 110/1/5 118/1/5
f 122/4/5 118/4/5 121/4/5
f 123/5/5 106/5/5 110/5/5
f 123/1/5 110/1/5 122/1/5
f 124/2/5 107/2/5 106/2/5
f 124/5/5 106/5/5 123/5/5
f 125/5/5 111/5/5 107/5/5
f 125/2/5 107/2/5 124/2/5
f 126/1/5 119/1/5 111/1/5
f 126/5/5 111/5/5 125/5/5
f 127/4/5 120/4/5 119/4/5
f 127/1/5 119/1/5 126/1/5
f 128/4/5 120/4/5 127/4/5
f 129/1/6 130/1/6 131/1/6
f 131/1/6 130/1/6 132/1/6
f 132/1/6 130/1/6 133/1/6
f 133/1/6 130/1/6 134/1/6
f 131/5/6 132/5/6 135/5/6
f 132/2/6 133/2/6 136/2/6
f 135/5/6 132/5/6 136/5/6
f 133/5/6 134/5/6 137/5/6
f 136/2/6 133/2/6 137/2/6
f 137/5/6 134/5/6 138/5/6
f 135/2/6 136/2/6 139/2/6
f 136/2/6 137/2/6 139/2/6
f 137/2/6 138/2/6 139/2/6
f 139/2/6 138/2/6 140/2/6
f 140/2/6 138/2/6 141/2/6
f 141/2/6 138/2/6 142/2/6
f 139/5/6 140/5/6 143/5/6
f 143/5/6 140/5/6 144/5/6
f 141/5/6 142/5/6 145/5/6
f 145/5/6 142/5/6 146/5/6
f 143/1/6 144/1/6 147/1/6
f 147/1/6 144/1/6 148/1/6
f 145/1/6 146/1/6 149/1/6
f 149/1/6 146/1/6 150/1/6
f 148/1/6 144/1/6 151/1/6
f 144/5/6 140/5/6 152/5/6
f 151/1/6 144/1/6 152/1/6
f 140/2/6 141/2/6 153/2/6
f 152/5/6 140/5/6 153/5/6
f 141/5/6 145/5/6 154/5/6
f 153/2/6 141/2/6 154/2/6
f 145/1/6 149/1/6 155/1/6
f 154/5/6 145/5/6 155/5/6
f 155/1/6 149/1/6 156/1/6
f 157/4/6 158/4/6 159/4/6
f 159/4/6 158/4/6 160/4/6
f 159/3/6 160/3/6 161/3/6
f 161/3/6 160/3/6 162/3/6
f 163/3/6 164/3/6 167/3/6
f 167/3/6 164/3/6 168/3/6
f 165/3/6 166/3/6 169/3/6
f 169/3/6 166/3/6 170/3/6
f 167/4/6 168/4/6 171/4/6
f 168/3/6 164/3/6 172/3/6
f 171/4/6 168/4/6 172/4/6
f 172/3/6 164/3/6 173/3/6
f 165/3/6 169/3/6 174/3/6
f 169/4/6 170/4/6 175/4/6
f 174/3/6 169/3/6 175/3/6
f 175/4/6 170/4/6 176/4/6
