# 3ds Max Wavefront OBJ Exporter v0.97b - (c)2007 guruware
# File Created: 31.05.2019 22:23:18

mtllib End.mtl

#
# object End
#

v  -15.5000 1.0000 11.5000
v  -15.5000 0.0000 11.5000
v  -15.5000 0.0000 12.5000
v  -15.5000 0.0000 10.5000
v  -15.5000 1.0000 10.5000
v  -15.5000 0.0000 0.5000
v  -15.5000 1.0000 0.5000
v  -15.5000 0.0000 -0.5000
v  -15.5000 1.0000 -0.5000
v  -15.5000 -0.0000 -10.5000
v  -15.5000 1.0000 -10.5000
v  -15.5000 -0.0000 -11.5000
v  -15.5000 1.0000 -11.5000
v  -15.5000 -0.0000 -12.5000
v  -15.5000 2.0000 15.5000
v  -15.5000 0.0000 15.5000
v  -15.5000 2.0000 12.5000
v  -15.5000 2.0000 11.5000
v  -15.5000 2.0000 -11.5000
v  -15.5000 2.0000 -12.5000
v  -15.5000 -0.0000 -15.5000
v  -15.5000 2.0000 -15.5000
v  11.5000 2.0000 11.5000
v  11.5000 1.0000 -11.5000
v  11.5000 1.0000 11.5000
v  11.5000 2.0000 -11.5000
v  15.5000 0.0000 15.5000
v  15.5000 -0.0000 -15.5000
v  15.5000 2.0000 15.5000
v  15.5000 2.0000 -15.5000
v  12.5000 0.0000 12.5000
v  11.5000 0.0000 11.5000
v  10.5000 0.0000 10.5000
v  -12.5000 0.0000 0.5000
v  -11.5000 0.0000 0.5000
v  -8.5000 0.0000 0.5000
v  -7.5000 0.0000 0.5000
v  -4.5000 0.0000 0.5000
v  -3.5000 0.0000 0.5000
v  -0.5000 0.0000 0.5000
v  -12.5000 0.0000 -0.5000
v  -11.5000 0.0000 -0.5000
v  -8.5000 0.0000 -0.5000
v  -7.5000 0.0000 -0.5000
v  -4.5000 0.0000 -0.5000
v  -3.5000 0.0000 -0.5000
v  -0.5000 0.0000 -0.5000
v  10.5000 -0.0000 -10.5000
v  11.5000 -0.0000 -11.5000
v  12.5000 -0.0000 -12.5000
v  10.5000 1.0000 10.5000
v  -12.5000 1.0000 0.5000
v  -11.5000 1.0000 0.5000
v  -8.5000 1.0000 0.5000
v  -7.5000 1.0000 0.5000
v  -4.5000 1.0000 0.5000
v  -3.5000 1.0000 0.5000
v  -0.5000 1.0000 0.5000
v  -12.5000 1.0000 -0.5000
v  -11.5000 1.0000 -0.5000
v  -8.5000 1.0000 -0.5000
v  -7.5000 1.0000 -0.5000
v  -4.5000 1.0000 -0.5000
v  -3.5000 1.0000 -0.5000
v  -0.5000 1.0000 -0.5000
v  10.5000 1.0000 -10.5000
v  12.5000 2.0000 12.5000
v  12.5000 2.0000 -12.5000
# 68 vertices

vn -1.0000 0.0000 -0.0000
vn 1.0000 0.0000 -0.0000
vn 0.0000 0.0000 1.0000
vn 0.0000 -0.0000 -1.0000
vn 0.0000 -1.0000 0.0000
vn 0.0000 1.0000 -0.0000
# 6 vertex normals

vt 0.9707 0.5000 0.0000
vt 0.0449 0.5000 0.0000
vt 0.9902 0.5000 0.0000
vt 0.9590 0.5000 0.0000
vt 0.9746 0.5000 0.0000
# 5 texture coords

o End
g End
usemtl palette
s 1
f 1/1/1 2/1/1 3/1/1 
f 1/2/1 4/2/1 2/2/1 
f 5/3/1 6/3/1 4/3/1 
f 5/2/1 4/2/1 1/2/1 
f 7/4/1 8/4/1 6/4/1 
f 7/3/1 6/3/1 5/3/1 
f 9/3/1 10/3/1 8/3/1 
f 9/4/1 8/4/1 7/4/1 
f 11/2/1 12/2/1 10/2/1 
f 11/3/1 10/3/1 9/3/1 
f 13/1/1 14/1/1 12/1/1 
f 13/2/1 12/2/1 11/2/1 
f 15/5/1 3/5/1 16/5/1 
f 17/1/1 1/1/1 3/1/1 
f 17/5/1 3/5/1 15/5/1 
f 18/1/1 1/1/1 17/1/1 
f 19/1/1 14/1/1 13/1/1 
f 20/5/1 21/5/1 14/5/1 
f 20/1/1 14/1/1 19/1/1 
f 22/5/1 21/5/1 20/5/1 
f 23/1/1 24/1/1 25/1/1 
f 26/1/1 24/1/1 23/1/1 
f 27/5/2 28/5/2 29/5/2 
f 29/5/2 28/5/2 30/5/2 
f 27/5/3 15/5/3 16/5/3 
f 29/5/3 15/5/3 27/5/3 
f 24/1/3 19/1/3 13/1/3 
f 26/1/3 19/1/3 24/1/3 
f 1/1/4 18/1/4 25/1/4 
f 25/1/4 18/1/4 23/1/4 
f 21/5/4 22/5/4 28/5/4 
f 28/5/4 22/5/4 30/5/4 
f 3/5/5 27/5/5 16/5/5 
f 31/5/5 27/5/5 3/5/5 
f 2/1/5 31/1/5 3/1/5 
f 32/1/5 31/1/5 2/1/5 
f 4/2/5 32/2/5 2/2/5 
f 33/2/5 32/2/5 4/2/5 
f 6/3/5 33/3/5 4/3/5 
f 34/3/5 33/3/5 6/3/5 
f 35/3/5 33/3/5 34/3/5 
f 36/3/5 33/3/5 35/3/5 
f 37/3/5 33/3/5 36/3/5 
f 38/3/5 33/3/5 37/3/5 
f 39/3/5 33/3/5 38/3/5 
f 40/3/5 33/3/5 39/3/5 
f 8/4/5 34/4/5 6/4/5 
f 41/3/5 35/3/5 34/3/5 
f 41/4/5 34/4/5 8/4/5 
f 42/4/5 36/4/5 35/4/5 
f 42/3/5 35/3/5 41/3/5 
f 43/3/5 37/3/5 36/3/5 
f 43/4/5 36/4/5 42/4/5 
f 44/4/5 38/4/5 37/4/5 
f 44/3/5 37/3/5 43/3/5 
f 45/3/5 39/3/5 38/3/5 
f 45/4/5 38/4/5 44/4/5 
f 46/4/5 40/4/5 39/4/5 
f 46/3/5 39/3/5 45/3/5 
f 47/3/5 33/3/5 40/3/5 
f 47/4/5 40/4/5 46/4/5 
f 10/3/5 46/3/5 45/3/5 
f 10/3/5 41/3/5 8/3/5 
f 10/3/5 47/3/5 46/3/5 
f 10/3/5 45/3/5 44/3/5 
f 10/3/5 44/3/5 43/3/5 
f 10/3/5 43/3/5 42/3/5 
f 10/3/5 42/3/5 41/3/5 
f 48/2/5 32/2/5 33/2/5 
f 48/3/5 47/3/5 10/3/5 
f 48/3/5 33/3/5 47/3/5 
f 12/2/5 48/2/5 10/2/5 
f 49/1/5 31/1/5 32/1/5 
f 49/2/5 48/2/5 12/2/5 
f 49/2/5 32/2/5 48/2/5 
f 14/1/5 49/1/5 12/1/5 
f 50/5/5 27/5/5 31/5/5 
f 50/1/5 49/1/5 14/1/5 
f 50/1/5 31/1/5 49/1/5 
f 21/5/5 50/5/5 14/5/5 
f 28/5/5 27/5/5 50/5/5 
f 28/5/5 50/5/5 21/5/5 
f 1/2/6 25/2/6 5/2/6 
f 5/2/6 25/2/6 51/2/6 
f 5/3/6 51/3/6 7/3/6 
f 7/3/6 51/3/6 52/3/6 
f 52/3/6 51/3/6 53/3/6 
f 53/3/6 51/3/6 54/3/6 
f 54/3/6 51/3/6 55/3/6 
f 55/3/6 51/3/6 56/3/6 
f 56/3/6 51/3/6 57/3/6 
f 57/3/6 51/3/6 58/3/6 
f 7/4/6 52/4/6 9/4/6 
f 52/3/6 53/3/6 59/3/6 
f 9/4/6 52/4/6 59/4/6 
f 53/4/6 54/4/6 60/4/6 
f 59/3/6 53/3/6 60/3/6 
f 54/3/6 55/3/6 61/3/6 
f 60/4/6 54/4/6 61/4/6 
f 55/4/6 56/4/6 62/4/6 
f 61/3/6 55/3/6 62/3/6 
f 56/3/6 57/3/6 63/3/6 
f 62/4/6 56/4/6 63/4/6 
f 57/4/6 58/4/6 64/4/6 
f 63/3/6 57/3/6 64/3/6 
f 58/3/6 51/3/6 65/3/6 
f 64/4/6 58/4/6 65/4/6 
f 63/3/6 64/3/6 11/3/6 
f 9/3/6 59/3/6 11/3/6 
f 64/3/6 65/3/6 11/3/6 
f 62/3/6 63/3/6 11/3/6 
f 61/3/6 62/3/6 11/3/6 
f 60/3/6 61/3/6 11/3/6 
f 59/3/6 60/3/6 11/3/6 
f 51/2/6 25/2/6 66/2/6 
f 11/3/6 65/3/6 66/3/6 
f 65/3/6 51/3/6 66/3/6 
f 11/2/6 66/2/6 13/2/6 
f 66/2/6 25/2/6 24/2/6 
f 13/2/6 66/2/6 24/2/6 
f 15/5/6 29/5/6 17/5/6 
f 17/5/6 29/5/6 67/5/6 
f 17/1/6 67/1/6 18/1/6 
f 18/1/6 67/1/6 23/1/6 
f 23/1/6 67/1/6 26/1/6 
f 19/1/6 26/1/6 20/1/6 
f 67/5/6 29/5/6 68/5/6 
f 20/1/6 26/1/6 68/1/6 
f 26/1/6 67/1/6 68/1/6 
f 20/5/6 68/5/6 22/5/6 
f 68/5/6 29/5/6 30/5/6 
f 22/5/6 68/5/6 30/5/6 
# 0 polygons - 132 triangles

