# MagicaVoxel @ Ephtracy

# group
g Park

# material
mtllib Park.mtl
usemtl palette

# normals
vn -1 0 0
vn 1 0 0
vn 0 -1 0
vn 0 1 0
vn 0 0 -1
vn 0 0 1

# texcoords
vt 0.537109 0.5
vt 0.626953 0.5
vt 0.650391 0.5
vt 0.978516 0.5

# verts
v 0 0 31
v 0 31 31
v 0 0 32
v 0 31 32
v 0 0 33
v 0 31 33
v 1 20 33
v 1 21 33
v 1 20 34
v 1 21 34
v 3 4 33
v 3 5 33
v 3 4 34
v 3 5 34
v 5 16 33
v 5 22 33
v 5 16 34
v 5 22 34
v 6 22 33
v 6 23 33
v 6 29 33
v 6 30 33
v 6 18 34
v 6 22 34
v 6 23 34
v 6 29 34
v 6 30 34
v 6 18 35
v 6 19 35
v 6 21 35
v 6 22 35
v 6 19 36
v 6 21 36
v 7 17 34
v 7 18 34
v 7 17 35
v 7 18 35
v 7 19 35
v 7 21 35
v 7 22 35
v 7 18 36
v 7 19 36
v 7 21 36
v 7 22 36
v 8 19 36
v 8 21 36
v 8 19 37
v 8 21 37
v 10 10 33
v 10 11 33
v 10 10 34
v 10 11 34
v 12 2 33
v 12 3 33
v 12 2 34
v 12 3 34
v 18 14 33
v 18 15 33
v 18 14 34
v 18 15 34
v 20 26 33
v 20 27 33
v 20 26 34
v 20 27 34
v 23 6 33
v 23 7 33
v 23 6 34
v 23 7 34
v 24 3 33
v 24 5 33
v 24 3 34
v 24 5 34
v 25 5 33
v 25 6 33
v 25 4 34
v 25 5 34
v 25 6 34
v 25 4 35
v 25 5 35
v 26 19 33
v 26 20 33
v 26 19 34
v 26 20 34
v 29 11 33
v 29 12 33
v 29 11 34
v 29 12 34
v 2 20 33
v 2 21 33
v 2 20 34
v 2 21 34
v 4 4 33
v 4 5 33
v 4 4 34
v 4 5 34
v 7 29 33
v 7 30 33
v 7 29 34
v 7 30 34
v 10 21 35
v 10 22 35
v 10 21 36
v 10 22 36
v 11 10 33
v 11 11 33
v 11 10 34
v 11 11 34
v 11 18 35
v 11 21 35
v 11 18 36
v 11 19 36
v 11 19 37
v 11 21 37
v 12 22 33
v 12 23 33
v 12 17 34
v 12 18 34
v 12 21 34
v 12 22 34
v 12 23 34
v 12 17 35
v 12 18 35
v 12 21 35
v 12 22 35
v 13 2 33
v 13 3 33
v 13 16 33
v 13 17 33
v 13 21 33
v 13 22 33
v 13 2 34
v 13 3 34
v 13 16 34
v 13 17 34
v 13 18 34
v 13 21 34
v 13 22 34
v 13 18 35
v 13 21 35
v 14 17 33
v 14 21 33
v 14 17 34
v 14 21 34
v 19 14 33
v 19 15 33
v 19 14 34
v 19 15 34
v 21 26 33
v 21 27 33
v 21 26 34
v 21 27 34
v 24 6 33
v 24 7 33
v 24 6 34
v 24 7 34
v 26 3 33
v 26 4 33
v 26 5 33
v 26 6 33
v 26 3 34
v 26 4 34
v 26 5 34
v 26 6 34
v 26 4 35
v 26 5 35
v 27 4 33
v 27 5 33
v 27 19 33
v 27 20 33
v 27 4 34
v 27 5 34
v 27 19 34
v 27 20 34
v 30 11 33
v 30 12 33
v 30 11 34
v 30 12 34
v 31 0 31
v 31 31 31
v 31 0 32
v 31 31 32
v 31 0 33
v 31 31 33
v 0 0 31
v 0 0 32
v 0 0 33
v 31 0 31
v 31 0 32
v 31 0 33
v 12 2 33
v 12 2 34
v 13 2 33
v 13 2 34
v 24 3 33
v 24 3 34
v 26 3 33
v 26 3 34
v 3 4 33
v 3 4 34
v 4 4 33
v 4 4 34
v 25 4 34
v 25 4 35
v 26 4 33
v 26 4 34
v 26 4 35
v 27 4 33
v 27 4 34
v 23 6 33
v 23 6 34
v 24 6 33
v 24 6 34
v 10 10 33
v 10 10 34
v 11 10 33
v 11 10 34
v 29 11 33
v 29 11 34
v 30 11 33
v 30 11 34
v 18 14 33
v 18 14 34
v 19 14 33
v 19 14 34
v 5 16 33
v 5 16 34
v 13 16 33
v 13 16 34
v 7 17 34
v 7 17 35
v 12 17 34
v 12 17 35
v 13 17 33
v 13 17 34
v 14 17 33
v 14 17 34
v 6 18 34
v 6 18 35
v 7 18 34
v 7 18 35
v 7 18 36
v 11 18 35
v 11 18 36
v 12 18 34
v 12 18 35
v 13 18 34
v 13 18 35
v 6 19 35
v 6 19 36
v 7 19 35
v 7 19 36
v 8 19 36
v 8 19 37
v 11 19 36
v 11 19 37
v 26 19 33
v 26 19 34
v 27 19 33
v 27 19 34
v 1 20 33
v 1 20 34
v 2 20 33
v 2 20 34
v 20 26 33
v 20 26 34
v 21 26 33
v 21 26 34
v 6 29 33
v 6 29 34
v 7 29 33
v 7 29 34
v 12 3 33
v 12 3 34
v 13 3 33
v 13 3 34
v 3 5 33
v 3 5 34
v 4 5 33
v 4 5 34
v 24 5 33
v 24 5 34
v 25 5 33
v 25 5 34
v 25 5 35
v 26 5 33
v 26 5 34
v 26 5 35
v 27 5 33
v 27 5 34
v 25 6 33
v 25 6 34
v 26 6 33
v 26 6 34
v 23 7 33
v 23 7 34
v 24 7 33
v 24 7 34
v 10 11 33
v 10 11 34
v 11 11 33
v 11 11 34
v 29 12 33
v 29 12 34
v 30 12 33
v 30 12 34
v 18 15 33
v 18 15 34
v 19 15 33
v 19 15 34
v 26 20 33
v 26 20 34
v 27 20 33
v 27 20 34
v 1 21 33
v 1 21 34
v 2 21 33
v 2 21 34
v 6 21 35
v 6 21 36
v 7 21 35
v 7 21 36
v 8 21 36
v 8 21 37
v 10 21 35
v 10 21 36
v 11 21 35
v 11 21 37
v 12 21 34
v 12 21 35
v 13 21 33
v 13 21 34
v 13 21 35
v 14 21 33
v 14 21 34
v 5 22 33
v 5 22 34
v 6 22 33
v 6 22 34
v 6 22 35
v 7 22 35
v 7 22 36
v 10 22 35
v 10 22 36
v 12 22 33
v 12 22 34
v 12 22 35
v 13 22 33
v 13 22 34
v 6 23 33
v 6 23 34
v 12 23 33
v 12 23 34
v 20 27 33
v 20 27 34
v 21 27 33
v 21 27 34
v 6 30 33
v 6 30 34
v 7 30 33
v 7 30 34
v 0 31 31
v 0 31 32
v 0 31 33
v 31 31 31
v 31 31 32
v 31 31 33
v 0 0 31
v 31 0 31
v 0 31 31
v 31 31 31
v 0 0 33
v 31 0 33
v 12 2 33
v 13 2 33
v 12 3 33
v 13 3 33
v 24 3 33
v 26 3 33
v 3 4 33
v 4 4 33
v 26 4 33
v 27 4 33
v 3 5 33
v 4 5 33
v 24 5 33
v 25 5 33
v 26 5 33
v 27 5 33
v 23 6 33
v 24 6 33
v 25 6 33
v 26 6 33
v 23 7 33
v 24 7 33
v 10 10 33
v 11 10 33
v 10 11 33
v 11 11 33
v 29 11 33
v 30 11 33
v 29 12 33
v 30 12 33
v 18 14 33
v 19 14 33
v 18 15 33
v 19 15 33
v 5 16 33
v 13 16 33
v 13 17 33
v 14 17 33
v 26 19 33
v 27 19 33
v 1 20 33
v 2 20 33
v 26 20 33
v 27 20 33
v 1 21 33
v 2 21 33
v 13 21 33
v 14 21 33
v 5 22 33
v 6 22 33
v 12 22 33
v 13 22 33
v 6 23 33
v 12 23 33
v 20 26 33
v 21 26 33
v 20 27 33
v 21 27 33
v 6 29 33
v 7 29 33
v 6 30 33
v 7 30 33
v 0 31 33
v 31 31 33
v 12 2 34
v 13 2 34
v 12 3 34
v 13 3 34
v 24 3 34
v 26 3 34
v 3 4 34
v 4 4 34
v 25 4 34
v 26 4 34
v 27 4 34
v 3 5 34
v 4 5 34
v 24 5 34
v 25 5 34
v 26 5 34
v 27 5 34
v 23 6 34
v 24 6 34
v 25 6 34
v 26 6 34
v 23 7 34
v 24 7 34
v 10 10 34
v 11 10 34
v 10 11 34
v 11 11 34
v 29 11 34
v 30 11 34
v 29 12 34
v 30 12 34
v 18 14 34
v 19 14 34
v 18 15 34
v 19 15 34
v 5 16 34
v 13 16 34
v 7 17 34
v 12 17 34
v 13 17 34
v 14 17 34
v 6 18 34
v 7 18 34
v 12 18 34
v 13 18 34
v 26 19 34
v 27 19 34
v 1 20 34
v 2 20 34
v 26 20 34
v 27 20 34
v 1 21 34
v 2 21 34
v 12 21 34
v 13 21 34
v 14 21 34
v 5 22 34
v 6 22 34
v 12 22 34
v 13 22 34
v 6 23 34
v 12 23 34
v 20 26 34
v 21 26 34
v 20 27 34
v 21 27 34
v 6 29 34
v 7 29 34
v 6 30 34
v 7 30 34
v 25 4 35
v 26 4 35
v 25 5 35
v 26 5 35
v 7 17 35
v 12 17 35
v 6 18 35
v 7 18 35
v 11 18 35
v 12 18 35
v 13 18 35
v 6 19 35
v 7 19 35
v 6 21 35
v 7 21 35
v 10 21 35
v 11 21 35
v 12 21 35
v 13 21 35
v 6 22 35
v 7 22 35
v 10 22 35
v 12 22 35
v 7 18 36
v 11 18 36
v 6 19 36
v 7 19 36
v 8 19 36
v 11 19 36
v 6 21 36
v 7 21 36
v 8 21 36
v 10 21 36
v 7 22 36
v 10 22 36
v 8 19 37
v 11 19 37
v 8 21 37
v 11 21 37

# faces
f 3/1/1 2/1/1 1/1/1
f 4/1/1 2/1/1 3/1/1
f 5/2/1 4/2/1 3/2/1
f 6/2/1 4/2/1 5/2/1
f 9/3/1 8/3/1 7/3/1
f 10/3/1 8/3/1 9/3/1
f 13/3/1 12/3/1 11/3/1
f 14/3/1 12/3/1 13/3/1
f 17/4/1 16/4/1 15/4/1
f 18/4/1 16/4/1 17/4/1
f 24/4/1 20/4/1 19/4/1
f 25/4/1 20/4/1 24/4/1
f 26/3/1 22/3/1 21/3/1
f 27/3/1 22/3/1 26/3/1
f 28/4/1 24/4/1 23/4/1
f 29/4/1 24/4/1 28/4/1
f 30/4/1 24/4/1 29/4/1
f 31/4/1 24/4/1 30/4/1
f 32/4/1 30/4/1 29/4/1
f 33/4/1 30/4/1 32/4/1
f 36/4/1 35/4/1 34/4/1
f 37/4/1 35/4/1 36/4/1
f 41/4/1 38/4/1 37/4/1
f 42/4/1 38/4/1 41/4/1
f 43/4/1 40/4/1 39/4/1
f 44/4/1 40/4/1 43/4/1
f 47/4/1 46/4/1 45/4/1
f 48/4/1 46/4/1 47/4/1
f 51/3/1 50/3/1 49/3/1
f 52/3/1 50/3/1 51/3/1
f 55/3/1 54/3/1 53/3/1
f 56/3/1 54/3/1 55/3/1
f 59/3/1 58/3/1 57/3/1
f 60/3/1 58/3/1 59/3/1
f 63/3/1 62/3/1 61/3/1
f 64/3/1 62/3/1 63/3/1
f 67/3/1 66/3/1 65/3/1
f 68/3/1 66/3/1 67/3/1
f 71/4/1 70/4/1 69/4/1
f 72/4/1 70/4/1 71/4/1
f 76/4/1 74/4/1 73/4/1
f 77/4/1 74/4/1 76/4/1
f 78/4/1 76/4/1 75/4/1
f 79/4/1 76/4/1 78/4/1
f 82/3/1 81/3/1 80/3/1
f 83/3/1 81/3/1 82/3/1
f 86/3/1 85/3/1 84/3/1
f 87/3/1 85/3/1 86/3/1
f 88/3/2 89/3/2 90/3/2
f 90/3/2 89/3/2 91/3/2
f 92/3/2 93/3/2 94/3/2
f 94/3/2 93/3/2 95/3/2
f 96/3/2 97/3/2 98/3/2
f 98/3/2 97/3/2 99/3/2
f 100/4/2 101/4/2 102/4/2
f 102/4/2 101/4/2 103/4/2
f 104/3/2 105/3/2 106/3/2
f 106/3/2 105/3/2 107/3/2
f 108/4/2 109/4/2 110/4/2
f 110/4/2 109/4/2 111/4/2
f 111/4/2 109/4/2 112/4/2
f 112/4/2 109/4/2 113/4/2
f 114/4/2 115/4/2 119/4/2
f 119/4/2 115/4/2 120/4/2
f 116/4/2 117/4/2 121/4/2
f 121/4/2 117/4/2 122/4/2
f 118/4/2 119/4/2 123/4/2
f 123/4/2 119/4/2 124/4/2
f 125/3/2 126/3/2 131/3/2
f 131/3/2 126/3/2 132/3/2
f 127/4/2 128/4/2 133/4/2
f 133/4/2 128/4/2 134/4/2
f 129/4/2 130/4/2 136/4/2
f 136/4/2 130/4/2 137/4/2
f 135/4/2 136/4/2 138/4/2
f 138/4/2 136/4/2 139/4/2
f 140/4/2 141/4/2 142/4/2
f 142/4/2 141/4/2 143/4/2
f 144/3/2 145/3/2 146/3/2
f 146/3/2 145/3/2 147/3/2
f 148/3/2 149/3/2 150/3/2
f 150/3/2 149/3/2 151/3/2
f 152/3/2 153/3/2 154/3/2
f 154/3/2 153/3/2 155/3/2
f 156/4/2 157/4/2 160/4/2
f 160/4/2 157/4/2 161/4/2
f 158/4/2 159/4/2 162/4/2
f 162/4/2 159/4/2 163/4/2
f 161/4/2 162/4/2 164/4/2
f 164/4/2 162/4/2 165/4/2
f 166/4/2 167/4/2 170/4/2
f 170/4/2 167/4/2 171/4/2
f 168/3/2 169/3/2 172/3/2
f 172/3/2 169/3/2 173/3/2
f 174/3/2 175/3/2 176/3/2
f 176/3/2 175/3/2 177/3/2
f 178/1/2 179/1/2 180/1/2
f 180/1/2 179/1/2 181/1/2
f 180/2/2 181/2/2 182/2/2
f 182/2/2 181/2/2 183/2/2
f 187/1/3 185/1/3 184/1/3
f 188/2/3 186/2/3 185/2/3
f 188/1/3 185/1/3 187/1/3
f 189/2/3 186/2/3 188/2/3
f 192/3/3 191/3/3 190/3/3
f 193/3/3 191/3/3 192/3/3
f 196/4/3 195/4/3 194/4/3
f 197/4/3 195/4/3 196/4/3
f 200/3/3 199/3/3 198/3/3
f 201/3/3 199/3/3 200/3/3
f 205/4/3 203/4/3 202/4/3
f 206/4/3 203/4/3 205/4/3
f 207/4/3 205/4/3 204/4/3
f 208/4/3 205/4/3 207/4/3
f 211/3/3 210/3/3 209/3/3
f 212/3/3 210/3/3 211/3/3
f 215/3/3 214/3/3 213/3/3
f 216/3/3 214/3/3 215/3/3
f 219/3/3 218/3/3 217/3/3
f 220/3/3 218/3/3 219/3/3
f 223/3/3 222/3/3 221/3/3
f 224/3/3 222/3/3 223/3/3
f 227/4/3 226/4/3 225/4/3
f 228/4/3 226/4/3 227/4/3
f 231/4/3 230/4/3 229/4/3
f 232/4/3 230/4/3 231/4/3
f 235/4/3 234/4/3 233/4/3
f 236/4/3 234/4/3 235/4/3
f 239/4/3 238/4/3 237/4/3
f 240/4/3 238/4/3 239/4/3
f 242/4/3 241/4/3 240/4/3
f 243/4/3 241/4/3 242/4/3
f 246/4/3 245/4/3 244/4/3
f 247/4/3 245/4/3 246/4/3
f 250/4/3 249/4/3 248/4/3
f 251/4/3 249/4/3 250/4/3
f 254/4/3 253/4/3 252/4/3
f 255/4/3 253/4/3 254/4/3
f 258/3/3 257/3/3 256/3/3
f 259/3/3 257/3/3 258/3/3
f 262/3/3 261/3/3 260/3/3
f 263/3/3 261/3/3 262/3/3
f 266/3/3 265/3/3 264/3/3
f 267/3/3 265/3/3 266/3/3
f 270/3/3 269/3/3 268/3/3
f 271/3/3 269/3/3 270/3/3
f 272/3/4 273/3/4 274/3/4
f 274/3/4 273/3/4 275/3/4
f 276/3/4 277/3/4 278/3/4
f 278/3/4 277/3/4 279/3/4
f 280/4/4 281/4/4 282/4/4
f 282/4/4 281/4/4 283/4/4
f 283/4/4 284/4/4 286/4/4
f 286/4/4 284/4/4 287/4/4
f 285/4/4 286/4/4 288/4/4
f 288/4/4 286/4/4 289/4/4
f 290/4/4 291/4/4 292/4/4
f 292/4/4 291/4/4 293/4/4
f 294/3/4 295/3/4 296/3/4
f 296/3/4 295/3/4 297/3/4
f 298/3/4 299/3/4 300/3/4
f 300/3/4 299/3/4 301/3/4
f 302/3/4 303/3/4 304/3/4
f 304/3/4 303/3/4 305/3/4
f 306/3/4 307/3/4 308/3/4
f 308/3/4 307/3/4 309/3/4
f 310/3/4 311/3/4 312/3/4
f 312/3/4 311/3/4 313/3/4
f 314/3/4 315/3/4 316/3/4
f 316/3/4 315/3/4 317/3/4
f 318/4/4 319/4/4 320/4/4
f 320/4/4 319/4/4 321/4/4
f 322/4/4 323/4/4 325/4/4
f 324/4/4 325/4/4 326/4/4
f 325/4/4 323/4/4 327/4/4
f 326/4/4 325/4/4 327/4/4
f 328/4/4 329/4/4 331/4/4
f 331/4/4 329/4/4 332/4/4
f 330/4/4 331/4/4 333/4/4
f 333/4/4 331/4/4 334/4/4
f 335/4/4 336/4/4 337/4/4
f 337/4/4 336/4/4 338/4/4
f 338/4/4 339/4/4 340/4/4
f 338/4/4 340/4/4 342/4/4
f 340/4/4 341/4/4 342/4/4
f 342/4/4 341/4/4 343/4/4
f 338/4/4 342/4/4 345/4/4
f 345/4/4 342/4/4 346/4/4
f 344/4/4 345/4/4 347/4/4
f 347/4/4 345/4/4 348/4/4
f 349/4/4 350/4/4 351/4/4
f 351/4/4 350/4/4 352/4/4
f 353/3/4 354/3/4 355/3/4
f 355/3/4 354/3/4 356/3/4
f 357/3/4 358/3/4 359/3/4
f 359/3/4 358/3/4 360/3/4
f 361/1/4 362/1/4 364/1/4
f 362/2/4 363/2/4 365/2/4
f 364/1/4 362/1/4 365/1/4
f 365/2/4 363/2/4 366/2/4
f 369/1/5 368/1/5 367/1/5
f 370/1/5 368/1/5 369/1/5
f 371/2/6 372/2/6 373/2/6
f 373/2/6 372/2/6 374/2/6
f 371/2/6 373/2/6 375/2/6
f 374/2/6 372/2/6 376/2/6
f 376/2/6 372/2/6 377/2/6
f 377/2/6 372/2/6 378/2/6
f 371/2/6 375/2/6 379/2/6
f 375/2/6 376/2/6 379/2/6
f 376/2/6 377/2/6 379/2/6
f 379/2/6 377/2/6 380/2/6
f 378/2/6 372/2/6 381/2/6
f 381/2/6 372/2/6 382/2/6
f 371/2/6 379/2/6 383/2/6
f 380/2/6 377/2/6 384/2/6
f 384/2/6 377/2/6 385/2/6
f 382/2/6 372/2/6 388/2/6
f 385/2/6 386/2/6 389/2/6
f 383/2/6 384/2/6 389/2/6
f 384/2/6 385/2/6 389/2/6
f 389/2/6 386/2/6 390/2/6
f 390/2/6 386/2/6 391/2/6
f 387/2/6 388/2/6 392/2/6
f 383/2/6 389/2/6 393/2/6
f 390/2/6 391/2/6 394/2/6
f 391/2/6 392/2/6 394/2/6
f 383/2/6 393/2/6 395/2/6
f 393/2/6 394/2/6 395/2/6
f 395/2/6 394/2/6 396/2/6
f 383/2/6 395/2/6 397/2/6
f 396/2/6 394/2/6 398/2/6
f 394/2/6 392/2/6 399/2/6
f 388/2/6 372/2/6 399/2/6
f 398/2/6 394/2/6 399/2/6
f 392/2/6 388/2/6 399/2/6
f 399/2/6 372/2/6 400/2/6
f 397/2/6 398/2/6 401/2/6
f 398/2/6 399/2/6 401/2/6
f 400/2/6 372/2/6 402/2/6
f 397/2/6 401/2/6 403/2/6
f 401/2/6 402/2/6 403/2/6
f 403/2/6 402/2/6 404/2/6
f 397/2/6 403/2/6 405/2/6
f 404/2/6 402/2/6 406/2/6
f 383/2/6 397/2/6 407/2/6
f 405/2/6 406/2/6 407/2/6
f 397/2/6 405/2/6 407/2/6
f 407/2/6 406/2/6 408/2/6
f 408/2/6 406/2/6 409/2/6
f 409/2/6 406/2/6 410/2/6
f 406/2/6 402/2/6 411/2/6
f 410/2/6 406/2/6 411/2/6
f 411/2/6 402/2/6 412/2/6
f 371/2/6 383/2/6 413/2/6
f 383/2/6 407/2/6 413/2/6
f 413/2/6 407/2/6 414/2/6
f 410/2/6 411/2/6 415/2/6
f 412/2/6 402/2/6 416/2/6
f 371/2/6 413/2/6 417/2/6
f 414/2/6 407/2/6 418/2/6
f 410/2/6 415/2/6 420/2/6
f 415/2/6 416/2/6 420/2/6
f 417/2/6 418/2/6 421/2/6
f 418/2/6 407/2/6 421/2/6
f 419/2/6 420/2/6 424/2/6
f 421/2/6 422/2/6 425/2/6
f 423/2/6 424/2/6 426/2/6
f 420/2/6 416/2/6 427/2/6
f 425/2/6 426/2/6 427/2/6
f 426/2/6 424/2/6 427/2/6
f 424/2/6 420/2/6 427/2/6
f 427/2/6 416/2/6 428/2/6
f 425/2/6 427/2/6 429/2/6
f 428/2/6 416/2/6 430/2/6
f 421/2/6 425/2/6 431/2/6
f 429/2/6 430/2/6 431/2/6
f 425/2/6 429/2/6 431/2/6
f 431/2/6 430/2/6 432/2/6
f 421/2/6 431/2/6 433/2/6
f 432/2/6 430/2/6 434/2/6
f 371/2/6 417/2/6 435/2/6
f 433/2/6 434/2/6 435/2/6
f 417/2/6 421/2/6 435/2/6
f 421/2/6 433/2/6 435/2/6
f 430/2/6 416/2/6 436/2/6
f 435/2/6 434/2/6 436/2/6
f 402/2/6 372/2/6 436/2/6
f 434/2/6 430/2/6 436/2/6
f 416/2/6 402/2/6 436/2/6
f 437/3/6 438/3/6 439/3/6
f 439/3/6 438/3/6 440/3/6
f 441/4/6 442/4/6 445/4/6
f 445/4/6 442/4/6 446/4/6
f 443/3/6 444/3/6 448/3/6
f 448/3/6 444/3/6 449/3/6
f 441/4/6 445/4/6 450/4/6
f 450/4/6 445/4/6 451/4/6
f 446/4/6 447/4/6 452/4/6
f 452/4/6 447/4/6 453/4/6
f 451/4/6 452/4/6 456/4/6
f 456/4/6 452/4/6 457/4/6
f 454/3/6 455/3/6 458/3/6
f 458/3/6 455/3/6 459/3/6
f 460/3/6 461/3/6 462/3/6
f 462/3/6 461/3/6 463/3/6
f 464/3/6 465/3/6 466/3/6
f 466/3/6 465/3/6 467/3/6
f 468/3/6 469/3/6 470/3/6
f 470/3/6 469/3/6 471/3/6
f 472/4/6 473/4/6 474/4/6
f 474/4/6 473/4/6 475/4/6
f 475/4/6 473/4/6 476/4/6
f 472/4/6 474/4/6 478/4/6
f 478/4/6 474/4/6 479/4/6
f 476/4/6 477/4/6 480/4/6
f 475/4/6 476/4/6 480/4/6
f 480/4/6 477/4/6 481/4/6
f 482/3/6 483/3/6 486/3/6
f 486/3/6 483/3/6 487/3/6
f 484/3/6 485/3/6 488/3/6
f 488/3/6 485/3/6 489/3/6
f 481/4/6 477/4/6 491/4/6
f 491/4/6 477/4/6 492/4/6
f 472/4/6 478/4/6 493/4/6
f 493/4/6 478/4/6 494/4/6
f 490/4/6 491/4/6 495/4/6
f 495/4/6 491/4/6 496/4/6
f 494/4/6 495/4/6 497/4/6
f 497/4/6 495/4/6 498/4/6
f 499/3/6 500/3/6 501/3/6
f 501/3/6 500/3/6 502/3/6
f 503/3/6 504/3/6 505/3/6
f 505/3/6 504/3/6 506/3/6
f 507/4/6 508/4/6 509/4/6
f 509/4/6 508/4/6 510/4/6
f 511/4/6 512/4/6 514/4/6
f 514/4/6 512/4/6 515/4/6
f 515/4/6 512/4/6 516/4/6
f 513/4/6 514/4/6 518/4/6
f 518/4/6 514/4/6 519/4/6
f 516/4/6 517/4/6 523/4/6
f 515/4/6 516/4/6 523/4/6
f 523/4/6 517/4/6 524/4/6
f 524/4/6 517/4/6 525/4/6
f 520/4/6 521/4/6 526/4/6
f 526/4/6 521/4/6 527/4/6
f 522/4/6 523/4/6 528/4/6
f 523/4/6 524/4/6 528/4/6
f 528/4/6 524/4/6 529/4/6
f 530/4/6 531/4/6 533/4/6
f 533/4/6 531/4/6 534/4/6
f 534/4/6 531/4/6 535/4/6
f 532/4/6 533/4/6 536/4/6
f 533/4/6 534/4/6 536/4/6
f 536/4/6 534/4/6 537/4/6
f 537/4/6 534/4/6 538/4/6
f 538/4/6 539/4/6 540/4/6
f 537/4/6 538/4/6 540/4/6
f 540/4/6 539/4/6 541/4/6
f 542/4/6 543/4/6 544/4/6
f 544/4/6 543/4/6 545/4/6
