# 3ds Max Wavefront OBJ Exporter v0.97b - (c)2007 guruware
# File Created: 31.05.2019 22:26:12

mtllib Road1.mtl

#
# object Road1
#

v  -15.5000 1.0000 11.5000
v  -15.5000 0.0000 11.5000
v  -15.5000 0.0000 12.5000
v  -15.5000 0.0000 10.5000
v  -15.5000 1.0000 10.5000
v  -15.5000 0.0000 0.5000
v  -15.5000 1.0000 0.5000
v  -15.5000 0.0000 -0.5000
v  -15.5000 1.0000 -0.5000
v  -15.5000 -0.0000 -10.5000
v  -15.5000 1.0000 -10.5000
v  -15.5000 -0.0000 -11.5000
v  -15.5000 1.0000 -11.5000
v  -15.5000 -0.0000 -12.5000
v  -15.5000 2.0000 15.5000
v  -15.5000 0.0000 15.5000
v  -15.5000 2.0000 12.5000
v  -15.5000 2.0000 11.5000
v  -15.5000 2.0000 -11.5000
v  -15.5000 2.0000 -12.5000
v  -15.5000 -0.0000 -15.5000
v  -15.5000 2.0000 -15.5000
v  15.5000 0.0000 12.5000
v  15.5000 0.0000 11.5000
v  15.5000 1.0000 11.5000
v  15.5000 0.0000 10.5000
v  15.5000 0.0000 0.5000
v  15.5000 1.0000 10.5000
v  15.5000 0.0000 -0.5000
v  15.5000 1.0000 0.5000
v  15.5000 -0.0000 -10.5000
v  15.5000 1.0000 -0.5000
v  15.5000 -0.0000 -11.5000
v  15.5000 1.0000 -10.5000
v  15.5000 -0.0000 -12.5000
v  15.5000 1.0000 -11.5000
v  15.5000 0.0000 15.5000
v  15.5000 2.0000 15.5000
v  15.5000 2.0000 12.5000
v  15.5000 2.0000 11.5000
v  15.5000 2.0000 -11.5000
v  15.5000 -0.0000 -15.5000
v  15.5000 2.0000 -12.5000
v  15.5000 2.0000 -15.5000
v  -12.5000 0.0000 0.5000
v  -11.5000 0.0000 0.5000
v  -8.5000 0.0000 0.5000
v  -7.5000 0.0000 0.5000
v  -4.5000 0.0000 0.5000
v  -3.5000 0.0000 0.5000
v  -0.5000 0.0000 0.5000
v  0.5000 0.0000 0.5000
v  3.5000 0.0000 0.5000
v  4.5000 0.0000 0.5000
v  7.5000 0.0000 0.5000
v  8.5000 0.0000 0.5000
v  11.5000 0.0000 0.5000
v  12.5000 0.0000 0.5000
v  -12.5000 0.0000 -0.5000
v  -11.5000 0.0000 -0.5000
v  -8.5000 0.0000 -0.5000
v  -7.5000 0.0000 -0.5000
v  -4.5000 0.0000 -0.5000
v  -3.5000 0.0000 -0.5000
v  -0.5000 0.0000 -0.5000
v  0.5000 0.0000 -0.5000
v  3.5000 0.0000 -0.5000
v  4.5000 0.0000 -0.5000
v  7.5000 0.0000 -0.5000
v  8.5000 0.0000 -0.5000
v  11.5000 0.0000 -0.5000
v  12.5000 0.0000 -0.5000
v  -12.5000 1.0000 0.5000
v  -11.5000 1.0000 0.5000
v  -8.5000 1.0000 0.5000
v  -7.5000 1.0000 0.5000
v  -4.5000 1.0000 0.5000
v  -3.5000 1.0000 0.5000
v  -0.5000 1.0000 0.5000
v  0.5000 1.0000 0.5000
v  3.5000 1.0000 0.5000
v  4.5000 1.0000 0.5000
v  7.5000 1.0000 0.5000
v  8.5000 1.0000 0.5000
v  11.5000 1.0000 0.5000
v  12.5000 1.0000 0.5000
v  -12.5000 1.0000 -0.5000
v  -11.5000 1.0000 -0.5000
v  -8.5000 1.0000 -0.5000
v  -7.5000 1.0000 -0.5000
v  -4.5000 1.0000 -0.5000
v  -3.5000 1.0000 -0.5000
v  -0.5000 1.0000 -0.5000
v  0.5000 1.0000 -0.5000
v  3.5000 1.0000 -0.5000
v  4.5000 1.0000 -0.5000
v  7.5000 1.0000 -0.5000
v  8.5000 1.0000 -0.5000
v  11.5000 1.0000 -0.5000
v  12.5000 1.0000 -0.5000
# 100 vertices

vn -1.0000 0.0000 -0.0000
vn 1.0000 0.0000 -0.0000
vn 0.0000 0.0000 1.0000
vn 0.0000 -0.0000 -1.0000
vn 0.0000 -1.0000 0.0000
vn 0.0000 1.0000 -0.0000
# 6 vertex normals

vt 0.9707 0.5000 0.0000
vt 0.0449 0.5000 0.0000
vt 0.9902 0.5000 0.0000
vt 0.9590 0.5000 0.0000
vt 0.9746 0.5000 0.0000
# 5 texture coords

o Road1
g Road1
usemtl palette
s 1
f 1/1/1 2/1/1 3/1/1 
f 1/2/1 4/2/1 2/2/1 
f 5/3/1 6/3/1 4/3/1 
f 5/2/1 4/2/1 1/2/1 
f 7/4/1 8/4/1 6/4/1 
f 7/3/1 6/3/1 5/3/1 
f 9/3/1 10/3/1 8/3/1 
f 9/4/1 8/4/1 7/4/1 
f 11/2/1 12/2/1 10/2/1 
f 11/3/1 10/3/1 9/3/1 
f 13/1/1 14/1/1 12/1/1 
f 13/2/1 12/2/1 11/2/1 
f 15/5/1 3/5/1 16/5/1 
f 17/1/1 1/1/1 3/1/1 
f 17/5/1 3/5/1 15/5/1 
f 18/1/1 1/1/1 17/1/1 
f 19/1/1 14/1/1 13/1/1 
f 20/5/1 21/5/1 14/5/1 
f 20/1/1 14/1/1 19/1/1 
f 22/5/1 21/5/1 20/5/1 
f 23/1/2 24/1/2 25/1/2 
f 24/2/2 26/2/2 25/2/2 
f 26/3/2 27/3/2 28/3/2 
f 25/2/2 26/2/2 28/2/2 
f 27/4/2 29/4/2 30/4/2 
f 28/3/2 27/3/2 30/3/2 
f 29/3/2 31/3/2 32/3/2 
f 30/4/2 29/4/2 32/4/2 
f 31/2/2 33/2/2 34/2/2 
f 32/3/2 31/3/2 34/3/2 
f 33/1/2 35/1/2 36/1/2 
f 34/2/2 33/2/2 36/2/2 
f 37/5/2 23/5/2 38/5/2 
f 23/1/2 25/1/2 39/1/2 
f 38/5/2 23/5/2 39/5/2 
f 39/1/2 25/1/2 40/1/2 
f 36/1/2 35/1/2 41/1/2 
f 35/5/2 42/5/2 43/5/2 
f 41/1/2 35/1/2 43/1/2 
f 43/5/2 42/5/2 44/5/2 
f 37/5/3 15/5/3 16/5/3 
f 38/5/3 15/5/3 37/5/3 
f 36/1/3 19/1/3 13/1/3 
f 41/1/3 19/1/3 36/1/3 
f 1/1/4 18/1/4 25/1/4 
f 25/1/4 18/1/4 40/1/4 
f 21/5/4 22/5/4 42/5/4 
f 42/5/4 22/5/4 44/5/4 
f 3/5/5 37/5/5 16/5/5 
f 23/5/5 37/5/5 3/5/5 
f 2/1/5 23/1/5 3/1/5 
f 24/1/5 23/1/5 2/1/5 
f 4/2/5 24/2/5 2/2/5 
f 26/2/5 24/2/5 4/2/5 
f 6/3/5 26/3/5 4/3/5 
f 45/3/5 26/3/5 6/3/5 
f 46/3/5 26/3/5 45/3/5 
f 47/3/5 26/3/5 46/3/5 
f 48/3/5 26/3/5 47/3/5 
f 49/3/5 26/3/5 48/3/5 
f 50/3/5 26/3/5 49/3/5 
f 51/3/5 26/3/5 50/3/5 
f 52/3/5 26/3/5 51/3/5 
f 53/3/5 26/3/5 52/3/5 
f 54/3/5 26/3/5 53/3/5 
f 55/3/5 26/3/5 54/3/5 
f 56/3/5 26/3/5 55/3/5 
f 57/3/5 26/3/5 56/3/5 
f 58/3/5 26/3/5 57/3/5 
f 27/3/5 26/3/5 58/3/5 
f 8/4/5 45/4/5 6/4/5 
f 59/3/5 46/3/5 45/3/5 
f 59/4/5 45/4/5 8/4/5 
f 60/4/5 47/4/5 46/4/5 
f 60/3/5 46/3/5 59/3/5 
f 61/3/5 48/3/5 47/3/5 
f 61/4/5 47/4/5 60/4/5 
f 62/4/5 49/4/5 48/4/5 
f 62/3/5 48/3/5 61/3/5 
f 63/3/5 50/3/5 49/3/5 
f 63/4/5 49/4/5 62/4/5 
f 64/4/5 51/4/5 50/4/5 
f 64/3/5 50/3/5 63/3/5 
f 65/3/5 52/3/5 51/3/5 
f 65/4/5 51/4/5 64/4/5 
f 66/4/5 53/4/5 52/4/5 
f 66/3/5 52/3/5 65/3/5 
f 67/3/5 54/3/5 53/3/5 
f 67/4/5 53/4/5 66/4/5 
f 68/4/5 55/4/5 54/4/5 
f 68/3/5 54/3/5 67/3/5 
f 69/3/5 56/3/5 55/3/5 
f 69/4/5 55/4/5 68/4/5 
f 70/4/5 57/4/5 56/4/5 
f 70/3/5 56/3/5 69/3/5 
f 71/3/5 58/3/5 57/3/5 
f 71/4/5 57/4/5 70/4/5 
f 72/4/5 27/4/5 58/4/5 
f 72/3/5 58/3/5 71/3/5 
f 29/4/5 27/4/5 72/4/5 
f 10/3/5 59/3/5 8/3/5 
f 10/3/5 60/3/5 59/3/5 
f 10/3/5 29/3/5 72/3/5 
f 10/3/5 72/3/5 71/3/5 
f 10/3/5 71/3/5 70/3/5 
f 10/3/5 70/3/5 69/3/5 
f 10/3/5 69/3/5 68/3/5 
f 10/3/5 68/3/5 67/3/5 
f 10/3/5 67/3/5 66/3/5 
f 10/3/5 66/3/5 65/3/5 
f 10/3/5 65/3/5 64/3/5 
f 10/3/5 64/3/5 63/3/5 
f 10/3/5 63/3/5 62/3/5 
f 10/3/5 62/3/5 61/3/5 
f 10/3/5 61/3/5 60/3/5 
f 31/3/5 29/3/5 10/3/5 
f 12/2/5 31/2/5 10/2/5 
f 33/2/5 31/2/5 12/2/5 
f 14/1/5 33/1/5 12/1/5 
f 35/1/5 33/1/5 14/1/5 
f 21/5/5 35/5/5 14/5/5 
f 42/5/5 35/5/5 21/5/5 
f 1/2/6 25/2/6 5/2/6 
f 5/2/6 25/2/6 28/2/6 
f 5/3/6 28/3/6 7/3/6 
f 7/3/6 28/3/6 73/3/6 
f 73/3/6 28/3/6 74/3/6 
f 74/3/6 28/3/6 75/3/6 
f 75/3/6 28/3/6 76/3/6 
f 76/3/6 28/3/6 77/3/6 
f 77/3/6 28/3/6 78/3/6 
f 78/3/6 28/3/6 79/3/6 
f 79/3/6 28/3/6 80/3/6 
f 80/3/6 28/3/6 81/3/6 
f 81/3/6 28/3/6 82/3/6 
f 82/3/6 28/3/6 83/3/6 
f 83/3/6 28/3/6 84/3/6 
f 84/3/6 28/3/6 85/3/6 
f 85/3/6 28/3/6 86/3/6 
f 86/3/6 28/3/6 30/3/6 
f 7/4/6 73/4/6 9/4/6 
f 73/3/6 74/3/6 87/3/6 
f 9/4/6 73/4/6 87/4/6 
f 74/4/6 75/4/6 88/4/6 
f 87/3/6 74/3/6 88/3/6 
f 75/3/6 76/3/6 89/3/6 
f 88/4/6 75/4/6 89/4/6 
f 76/4/6 77/4/6 90/4/6 
f 89/3/6 76/3/6 90/3/6 
f 77/3/6 78/3/6 91/3/6 
f 90/4/6 77/4/6 91/4/6 
f 78/4/6 79/4/6 92/4/6 
f 91/3/6 78/3/6 92/3/6 
f 79/3/6 80/3/6 93/3/6 
f 92/4/6 79/4/6 93/4/6 
f 80/4/6 81/4/6 94/4/6 
f 93/3/6 80/3/6 94/3/6 
f 81/3/6 82/3/6 95/3/6 
f 94/4/6 81/4/6 95/4/6 
f 82/4/6 83/4/6 96/4/6 
f 95/3/6 82/3/6 96/3/6 
f 83/3/6 84/3/6 97/3/6 
f 96/4/6 83/4/6 97/4/6 
f 84/4/6 85/4/6 98/4/6 
f 97/3/6 84/3/6 98/3/6 
f 85/3/6 86/3/6 99/3/6 
f 98/4/6 85/4/6 99/4/6 
f 86/4/6 30/4/6 100/4/6 
f 99/3/6 86/3/6 100/3/6 
f 100/4/6 30/4/6 32/4/6 
f 9/3/6 87/3/6 11/3/6 
f 87/3/6 88/3/6 11/3/6 
f 100/3/6 32/3/6 11/3/6 
f 99/3/6 100/3/6 11/3/6 
f 98/3/6 99/3/6 11/3/6 
f 97/3/6 98/3/6 11/3/6 
f 96/3/6 97/3/6 11/3/6 
f 95/3/6 96/3/6 11/3/6 
f 94/3/6 95/3/6 11/3/6 
f 93/3/6 94/3/6 11/3/6 
f 92/3/6 93/3/6 11/3/6 
f 91/3/6 92/3/6 11/3/6 
f 90/3/6 91/3/6 11/3/6 
f 89/3/6 90/3/6 11/3/6 
f 88/3/6 89/3/6 11/3/6 
f 11/3/6 32/3/6 34/3/6 
f 11/2/6 34/2/6 13/2/6 
f 13/2/6 34/2/6 36/2/6 
f 15/5/6 38/5/6 17/5/6 
f 17/5/6 38/5/6 39/5/6 
f 17/1/6 39/1/6 18/1/6 
f 18/1/6 39/1/6 40/1/6 
f 19/1/6 41/1/6 20/1/6 
f 20/1/6 41/1/6 43/1/6 
f 20/5/6 43/5/6 22/5/6 
f 22/5/6 43/5/6 44/5/6 
# 0 polygons - 196 triangles

