# 3ds Max Wavefront OBJ Exporter v0.97b - (c)2007 guruware
# File Created: 31.05.2019 23:53:01

mtllib Road2.mtl

#
# object Road2
#

v  -15.5000 1.0000 11.5000
v  -15.5000 0.0000 11.5000
v  -15.5000 0.0000 12.5000
v  -15.5000 0.0000 10.5000
v  -15.5000 1.0000 10.5000
v  -15.5000 0.0000 0.5000
v  -15.5000 1.0000 0.5000
v  -15.5000 0.0000 -0.5000
v  -15.5000 1.0000 -0.5000
v  -15.5000 -0.0000 -10.5000
v  -15.5000 1.0000 -10.5000
v  -15.5000 -0.0000 -11.5000
v  -15.5000 1.0000 -11.5000
v  -15.5000 -0.0000 -12.5000
v  -15.5000 2.0000 15.5000
v  -15.5000 0.0000 15.5000
v  -15.5000 2.0000 12.5000
v  -15.5000 2.0000 11.5000
v  -15.5000 2.0000 -11.5000
v  -15.5000 2.0000 -12.5000
v  -15.5000 -0.0000 -15.5000
v  -15.5000 2.0000 -15.5000
v  -10.5000 17.0000 -8.5000
v  -10.5000 16.0000 -10.5000
v  -10.5000 16.0000 -8.5000
v  -10.5000 17.0000 -10.5000
v  -10.5000 17.0000 -12.5000
v  -10.5000 2.0000 -13.5000
v  -10.5000 2.0000 -12.5000
v  -10.5000 18.0000 -8.5000
v  -10.5000 18.0000 -13.5000
v  9.5000 17.0000 12.5000
v  9.5000 2.0000 12.5000
v  9.5000 2.0000 13.5000
v  9.5000 17.0000 10.5000
v  9.5000 16.0000 8.5000
v  9.5000 16.0000 10.5000
v  9.5000 17.0000 8.5000
v  9.5000 18.0000 13.5000
v  9.5000 18.0000 8.5000
v  -9.5000 16.0000 -8.5000
v  -9.5000 16.0000 -10.5000
v  -9.5000 17.0000 -8.5000
v  -9.5000 17.0000 -10.5000
v  -9.5000 2.0000 -12.5000
v  -9.5000 2.0000 -13.5000
v  -9.5000 17.0000 -12.5000
v  -9.5000 18.0000 -8.5000
v  -9.5000 18.0000 -13.5000
v  10.5000 2.0000 13.5000
v  10.5000 2.0000 12.5000
v  10.5000 17.0000 12.5000
v  10.5000 16.0000 10.5000
v  10.5000 16.0000 8.5000
v  10.5000 17.0000 10.5000
v  10.5000 17.0000 8.5000
v  10.5000 18.0000 13.5000
v  10.5000 18.0000 8.5000
v  15.5000 0.0000 12.5000
v  15.5000 0.0000 11.5000
v  15.5000 1.0000 11.5000
v  15.5000 0.0000 10.5000
v  15.5000 0.0000 0.5000
v  15.5000 1.0000 10.5000
v  15.5000 0.0000 -0.5000
v  15.5000 1.0000 0.5000
v  15.5000 -0.0000 -10.5000
v  15.5000 1.0000 -0.5000
v  15.5000 -0.0000 -11.5000
v  15.5000 1.0000 -10.5000
v  15.5000 -0.0000 -12.5000
v  15.5000 1.0000 -11.5000
v  15.5000 0.0000 15.5000
v  15.5000 2.0000 15.5000
v  15.5000 2.0000 12.5000
v  15.5000 2.0000 11.5000
v  15.5000 2.0000 -11.5000
v  15.5000 -0.0000 -15.5000
v  15.5000 2.0000 -12.5000
v  15.5000 2.0000 -15.5000
v  -12.5000 0.0000 0.5000
v  -11.5000 0.0000 0.5000
v  -8.5000 0.0000 0.5000
v  -7.5000 0.0000 0.5000
v  -4.5000 0.0000 0.5000
v  -3.5000 0.0000 0.5000
v  -0.5000 0.0000 0.5000
v  0.5000 0.0000 0.5000
v  3.5000 0.0000 0.5000
v  4.5000 0.0000 0.5000
v  7.5000 0.0000 0.5000
v  8.5000 0.0000 0.5000
v  11.5000 0.0000 0.5000
v  12.5000 0.0000 0.5000
v  -12.5000 0.0000 -0.5000
v  -11.5000 0.0000 -0.5000
v  -8.5000 0.0000 -0.5000
v  -7.5000 0.0000 -0.5000
v  -4.5000 0.0000 -0.5000
v  -3.5000 0.0000 -0.5000
v  -0.5000 0.0000 -0.5000
v  0.5000 0.0000 -0.5000
v  3.5000 0.0000 -0.5000
v  4.5000 0.0000 -0.5000
v  7.5000 0.0000 -0.5000
v  8.5000 0.0000 -0.5000
v  11.5000 0.0000 -0.5000
v  12.5000 0.0000 -0.5000
v  -12.5000 1.0000 0.5000
v  -11.5000 1.0000 0.5000
v  -8.5000 1.0000 0.5000
v  -7.5000 1.0000 0.5000
v  -4.5000 1.0000 0.5000
v  -3.5000 1.0000 0.5000
v  -0.5000 1.0000 0.5000
v  0.5000 1.0000 0.5000
v  3.5000 1.0000 0.5000
v  4.5000 1.0000 0.5000
v  7.5000 1.0000 0.5000
v  8.5000 1.0000 0.5000
v  11.5000 1.0000 0.5000
v  12.5000 1.0000 0.5000
v  -12.5000 1.0000 -0.5000
v  -11.5000 1.0000 -0.5000
v  -8.5000 1.0000 -0.5000
v  -7.5000 1.0000 -0.5000
v  -4.5000 1.0000 -0.5000
v  -3.5000 1.0000 -0.5000
v  -0.5000 1.0000 -0.5000
v  0.5000 1.0000 -0.5000
v  3.5000 1.0000 -0.5000
v  4.5000 1.0000 -0.5000
v  7.5000 1.0000 -0.5000
v  8.5000 1.0000 -0.5000
v  11.5000 1.0000 -0.5000
v  12.5000 1.0000 -0.5000
# 136 vertices

vn -1.0000 0.0000 -0.0000
vn 1.0000 0.0000 -0.0000
vn 0.0000 0.0000 1.0000
vn 0.0000 -0.0000 -1.0000
vn 0.0000 -1.0000 0.0000
vn 0.0000 1.0000 -0.0000
# 6 vertex normals

vt 0.9707 0.5000 0.0000
vt 0.0449 0.5000 0.0000
vt 0.9902 0.5000 0.0000
vt 0.9590 0.5000 0.0000
vt 0.9746 0.5000 0.0000
vt 0.0215 0.5000 0.0000
vt 0.9824 0.5000 0.0000
# 7 texture coords

o Road2
g Road2
usemtl palette
s 1
f 1/1/1 2/1/1 3/1/1 
f 1/2/1 4/2/1 2/2/1 
f 5/3/1 6/3/1 4/3/1 
f 5/2/1 4/2/1 1/2/1 
f 7/4/1 8/4/1 6/4/1 
f 7/3/1 6/3/1 5/3/1 
f 9/3/1 10/3/1 8/3/1 
f 9/4/1 8/4/1 7/4/1 
f 11/2/1 12/2/1 10/2/1 
f 11/3/1 10/3/1 9/3/1 
f 13/1/1 14/1/1 12/1/1 
f 13/2/1 12/2/1 11/2/1 
f 15/5/1 3/5/1 16/5/1 
f 17/1/1 1/1/1 3/1/1 
f 17/5/1 3/5/1 15/5/1 
f 18/1/1 1/1/1 17/1/1 
f 19/1/1 14/1/1 13/1/1 
f 20/5/1 21/5/1 14/5/1 
f 20/1/1 14/1/1 19/1/1 
f 22/5/1 21/5/1 20/5/1 
f 23/6/1 24/6/1 25/6/1 
f 26/6/1 24/6/1 23/6/1 
f 27/7/1 28/7/1 29/7/1 
f 30/7/1 26/7/1 23/7/1 
f 30/7/1 27/7/1 26/7/1 
f 31/7/1 28/7/1 27/7/1 
f 31/7/1 27/7/1 30/7/1 
f 32/7/1 33/7/1 34/7/1 
f 35/6/1 36/6/1 37/6/1 
f 38/6/1 36/6/1 35/6/1 
f 39/7/1 32/7/1 34/7/1 
f 39/7/1 35/7/1 32/7/1 
f 39/7/1 38/7/1 35/7/1 
f 40/7/1 38/7/1 39/7/1 
f 41/6/2 42/6/2 43/6/2 
f 43/6/2 42/6/2 44/6/2 
f 45/7/2 46/7/2 47/7/2 
f 43/7/2 44/7/2 48/7/2 
f 44/7/2 47/7/2 48/7/2 
f 47/7/2 46/7/2 49/7/2 
f 48/7/2 47/7/2 49/7/2 
f 50/7/2 51/7/2 52/7/2 
f 53/6/2 54/6/2 55/6/2 
f 55/6/2 54/6/2 56/6/2 
f 50/7/2 52/7/2 57/7/2 
f 52/7/2 55/7/2 57/7/2 
f 55/7/2 56/7/2 57/7/2 
f 57/7/2 56/7/2 58/7/2 
f 59/1/2 60/1/2 61/1/2 
f 60/2/2 62/2/2 61/2/2 
f 62/3/2 63/3/2 64/3/2 
f 61/2/2 62/2/2 64/2/2 
f 63/4/2 65/4/2 66/4/2 
f 64/3/2 63/3/2 66/3/2 
f 65/3/2 67/3/2 68/3/2 
f 66/4/2 65/4/2 68/4/2 
f 67/2/2 69/2/2 70/2/2 
f 68/3/2 67/3/2 70/3/2 
f 69/1/2 71/1/2 72/1/2 
f 70/2/2 69/2/2 72/2/2 
f 73/5/2 59/5/2 74/5/2 
f 59/1/2 61/1/2 75/1/2 
f 74/5/2 59/5/2 75/5/2 
f 75/1/2 61/1/2 76/1/2 
f 72/1/2 71/1/2 77/1/2 
f 71/5/2 78/5/2 79/5/2 
f 77/1/2 71/1/2 79/1/2 
f 79/5/2 78/5/2 80/5/2 
f 73/5/3 15/5/3 16/5/3 
f 74/5/3 15/5/3 73/5/3 
f 50/7/3 39/7/3 34/7/3 
f 57/7/3 39/7/3 50/7/3 
f 53/6/3 35/6/3 37/6/3 
f 55/6/3 35/6/3 53/6/3 
f 41/6/3 23/6/3 25/6/3 
f 43/7/3 30/7/3 23/7/3 
f 43/6/3 23/6/3 41/6/3 
f 48/7/3 30/7/3 43/7/3 
f 72/1/3 19/1/3 13/1/3 
f 77/1/3 19/1/3 72/1/3 
f 45/7/3 27/7/3 29/7/3 
f 47/7/3 27/7/3 45/7/3 
f 33/7/4 32/7/4 51/7/4 
f 51/7/4 32/7/4 52/7/4 
f 1/1/4 18/1/4 61/1/4 
f 61/1/4 18/1/4 76/1/4 
f 36/6/4 38/6/4 54/6/4 
f 38/7/4 40/7/4 56/7/4 
f 54/6/4 38/6/4 56/6/4 
f 56/7/4 40/7/4 58/7/4 
f 24/6/4 26/6/4 42/6/4 
f 42/6/4 26/6/4 44/6/4 
f 28/7/4 31/7/4 46/7/4 
f 46/7/4 31/7/4 49/7/4 
f 21/5/4 22/5/4 78/5/4 
f 78/5/4 22/5/4 80/5/4 
f 3/5/5 73/5/5 16/5/5 
f 59/5/5 73/5/5 3/5/5 
f 2/1/5 59/1/5 3/1/5 
f 60/1/5 59/1/5 2/1/5 
f 4/2/5 60/2/5 2/2/5 
f 62/2/5 60/2/5 4/2/5 
f 6/3/5 62/3/5 4/3/5 
f 81/3/5 62/3/5 6/3/5 
f 82/3/5 62/3/5 81/3/5 
f 83/3/5 62/3/5 82/3/5 
f 84/3/5 62/3/5 83/3/5 
f 85/3/5 62/3/5 84/3/5 
f 86/3/5 62/3/5 85/3/5 
f 87/3/5 62/3/5 86/3/5 
f 88/3/5 62/3/5 87/3/5 
f 89/3/5 62/3/5 88/3/5 
f 90/3/5 62/3/5 89/3/5 
f 91/3/5 62/3/5 90/3/5 
f 92/3/5 62/3/5 91/3/5 
f 93/3/5 62/3/5 92/3/5 
f 94/3/5 62/3/5 93/3/5 
f 63/3/5 62/3/5 94/3/5 
f 8/4/5 81/4/5 6/4/5 
f 95/3/5 82/3/5 81/3/5 
f 95/4/5 81/4/5 8/4/5 
f 96/4/5 83/4/5 82/4/5 
f 96/3/5 82/3/5 95/3/5 
f 97/3/5 84/3/5 83/3/5 
f 97/4/5 83/4/5 96/4/5 
f 98/4/5 85/4/5 84/4/5 
f 98/3/5 84/3/5 97/3/5 
f 99/3/5 86/3/5 85/3/5 
f 99/4/5 85/4/5 98/4/5 
f 100/4/5 87/4/5 86/4/5 
f 100/3/5 86/3/5 99/3/5 
f 101/3/5 88/3/5 87/3/5 
f 101/4/5 87/4/5 100/4/5 
f 102/4/5 89/4/5 88/4/5 
f 102/3/5 88/3/5 101/3/5 
f 103/3/5 90/3/5 89/3/5 
f 103/4/5 89/4/5 102/4/5 
f 104/4/5 91/4/5 90/4/5 
f 104/3/5 90/3/5 103/3/5 
f 105/3/5 92/3/5 91/3/5 
f 105/4/5 91/4/5 104/4/5 
f 106/4/5 93/4/5 92/4/5 
f 106/3/5 92/3/5 105/3/5 
f 107/3/5 94/3/5 93/3/5 
f 107/4/5 93/4/5 106/4/5 
f 108/4/5 63/4/5 94/4/5 
f 108/3/5 94/3/5 107/3/5 
f 65/4/5 63/4/5 108/4/5 
f 10/3/5 95/3/5 8/3/5 
f 10/3/5 96/3/5 95/3/5 
f 10/3/5 65/3/5 108/3/5 
f 10/3/5 108/3/5 107/3/5 
f 10/3/5 107/3/5 106/3/5 
f 10/3/5 106/3/5 105/3/5 
f 10/3/5 105/3/5 104/3/5 
f 10/3/5 104/3/5 103/3/5 
f 10/3/5 103/3/5 102/3/5 
f 10/3/5 102/3/5 101/3/5 
f 10/3/5 101/3/5 100/3/5 
f 10/3/5 100/3/5 99/3/5 
f 10/3/5 99/3/5 98/3/5 
f 10/3/5 98/3/5 97/3/5 
f 10/3/5 97/3/5 96/3/5 
f 67/3/5 65/3/5 10/3/5 
f 12/2/5 67/2/5 10/2/5 
f 69/2/5 67/2/5 12/2/5 
f 14/1/5 69/1/5 12/1/5 
f 71/1/5 69/1/5 14/1/5 
f 21/5/5 71/5/5 14/5/5 
f 78/5/5 71/5/5 21/5/5 
f 36/6/5 53/6/5 37/6/5 
f 54/6/5 53/6/5 36/6/5 
f 24/6/5 41/6/5 25/6/5 
f 42/6/5 41/6/5 24/6/5 
f 35/7/5 52/7/5 32/7/5 
f 55/7/5 52/7/5 35/7/5 
f 27/7/5 44/7/5 26/7/5 
f 47/7/5 44/7/5 27/7/5 
f 1/2/6 61/2/6 5/2/6 
f 5/2/6 61/2/6 64/2/6 
f 5/3/6 64/3/6 7/3/6 
f 7/3/6 64/3/6 109/3/6 
f 109/3/6 64/3/6 110/3/6 
f 110/3/6 64/3/6 111/3/6 
f 111/3/6 64/3/6 112/3/6 
f 112/3/6 64/3/6 113/3/6 
f 113/3/6 64/3/6 114/3/6 
f 114/3/6 64/3/6 115/3/6 
f 115/3/6 64/3/6 116/3/6 
f 116/3/6 64/3/6 117/3/6 
f 117/3/6 64/3/6 118/3/6 
f 118/3/6 64/3/6 119/3/6 
f 119/3/6 64/3/6 120/3/6 
f 120/3/6 64/3/6 121/3/6 
f 121/3/6 64/3/6 122/3/6 
f 122/3/6 64/3/6 66/3/6 
f 7/4/6 109/4/6 9/4/6 
f 109/3/6 110/3/6 123/3/6 
f 9/4/6 109/4/6 123/4/6 
f 110/4/6 111/4/6 124/4/6 
f 123/3/6 110/3/6 124/3/6 
f 111/3/6 112/3/6 125/3/6 
f 124/4/6 111/4/6 125/4/6 
f 112/4/6 113/4/6 126/4/6 
f 125/3/6 112/3/6 126/3/6 
f 113/3/6 114/3/6 127/3/6 
f 126/4/6 113/4/6 127/4/6 
f 114/4/6 115/4/6 128/4/6 
f 127/3/6 114/3/6 128/3/6 
f 115/3/6 116/3/6 129/3/6 
f 128/4/6 115/4/6 129/4/6 
f 116/4/6 117/4/6 130/4/6 
f 129/3/6 116/3/6 130/3/6 
f 117/3/6 118/3/6 131/3/6 
f 130/4/6 117/4/6 131/4/6 
f 118/4/6 119/4/6 132/4/6 
f 131/3/6 118/3/6 132/3/6 
f 119/3/6 120/3/6 133/3/6 
f 132/4/6 119/4/6 133/4/6 
f 120/4/6 121/4/6 134/4/6 
f 133/3/6 120/3/6 134/3/6 
f 121/3/6 122/3/6 135/3/6 
f 134/4/6 121/4/6 135/4/6 
f 122/4/6 66/4/6 136/4/6 
f 135/3/6 122/3/6 136/3/6 
f 136/4/6 66/4/6 68/4/6 
f 9/3/6 123/3/6 11/3/6 
f 123/3/6 124/3/6 11/3/6 
f 136/3/6 68/3/6 11/3/6 
f 135/3/6 136/3/6 11/3/6 
f 134/3/6 135/3/6 11/3/6 
f 133/3/6 134/3/6 11/3/6 
f 132/3/6 133/3/6 11/3/6 
f 131/3/6 132/3/6 11/3/6 
f 130/3/6 131/3/6 11/3/6 
f 129/3/6 130/3/6 11/3/6 
f 128/3/6 129/3/6 11/3/6 
f 127/3/6 128/3/6 11/3/6 
f 126/3/6 127/3/6 11/3/6 
f 125/3/6 126/3/6 11/3/6 
f 124/3/6 125/3/6 11/3/6 
f 11/3/6 68/3/6 70/3/6 
f 11/2/6 70/2/6 13/2/6 
f 13/2/6 70/2/6 72/2/6 
f 15/5/6 74/5/6 34/5/6 
f 34/5/6 74/5/6 50/5/6 
f 15/5/6 34/5/6 17/5/6 
f 17/5/6 34/5/6 33/5/6 
f 50/5/6 74/5/6 51/5/6 
f 51/5/6 74/5/6 75/5/6 
f 17/1/6 33/1/6 18/1/6 
f 33/1/6 51/1/6 18/1/6 
f 51/1/6 75/1/6 18/1/6 
f 18/1/6 75/1/6 76/1/6 
f 19/1/6 77/1/6 20/1/6 
f 20/1/6 77/1/6 29/1/6 
f 29/1/6 77/1/6 45/1/6 
f 45/1/6 77/1/6 79/1/6 
f 20/5/6 29/5/6 28/5/6 
f 45/5/6 79/5/6 46/5/6 
f 20/5/6 28/5/6 22/5/6 
f 28/5/6 46/5/6 22/5/6 
f 46/5/6 79/5/6 80/5/6 
f 22/5/6 46/5/6 80/5/6 
f 39/7/6 57/7/6 40/7/6 
f 40/7/6 57/7/6 58/7/6 
f 30/7/6 48/7/6 31/7/6 
f 31/7/6 48/7/6 49/7/6 
# 0 polygons - 268 triangles

