# 3ds Max Wavefront OBJ Exporter v0.97b - (c)2007 guruware
# File Created: 31.05.2019 22:29:42

mtllib TJunction.mtl

#
# object TJunction
#

v  -15.5000 1.0000 11.5000
v  -15.5000 0.0000 11.5000
v  -15.5000 0.0000 12.5000
v  -15.5000 0.0000 10.5000
v  -15.5000 1.0000 10.5000
v  -15.5000 0.0000 0.5000
v  -15.5000 1.0000 0.5000
v  -15.5000 0.0000 -0.5000
v  -15.5000 1.0000 -0.5000
v  -15.5000 -0.0000 -10.5000
v  -15.5000 1.0000 -10.5000
v  -15.5000 -0.0000 -11.5000
v  -15.5000 1.0000 -11.5000
v  -15.5000 -0.0000 -12.5000
v  -15.5000 2.0000 15.5000
v  -15.5000 0.0000 15.5000
v  -15.5000 2.0000 12.5000
v  -15.5000 2.0000 11.5000
v  -15.5000 2.0000 -11.5000
v  -15.5000 2.0000 -12.5000
v  -15.5000 -0.0000 -15.5000
v  -15.5000 2.0000 -15.5000
v  11.5000 2.0000 -11.5000
v  11.5000 1.0000 -15.5000
v  11.5000 1.0000 -11.5000
v  11.5000 2.0000 -15.5000
v  -11.5000 1.0000 -11.5000
v  -11.5000 1.0000 -15.5000
v  -11.5000 2.0000 -11.5000
v  -11.5000 2.0000 -15.5000
v  15.5000 0.0000 12.5000
v  15.5000 0.0000 11.5000
v  15.5000 1.0000 11.5000
v  15.5000 0.0000 10.5000
v  15.5000 0.0000 0.5000
v  15.5000 1.0000 10.5000
v  15.5000 0.0000 -0.5000
v  15.5000 1.0000 0.5000
v  15.5000 -0.0000 -10.5000
v  15.5000 1.0000 -0.5000
v  15.5000 -0.0000 -11.5000
v  15.5000 1.0000 -10.5000
v  15.5000 -0.0000 -12.5000
v  15.5000 1.0000 -11.5000
v  15.5000 0.0000 15.5000
v  15.5000 2.0000 15.5000
v  15.5000 2.0000 12.5000
v  15.5000 2.0000 11.5000
v  15.5000 2.0000 -11.5000
v  15.5000 -0.0000 -15.5000
v  15.5000 2.0000 -12.5000
v  15.5000 2.0000 -15.5000
v  -12.5000 1.0000 -15.5000
v  -12.5000 2.0000 -15.5000
v  -11.5000 -0.0000 -15.5000
v  -10.5000 -0.0000 -15.5000
v  -10.5000 1.0000 -15.5000
v  -0.5000 -0.0000 -15.5000
v  -0.5000 1.0000 -15.5000
v  0.5000 -0.0000 -15.5000
v  0.5000 1.0000 -15.5000
v  10.5000 -0.0000 -15.5000
v  10.5000 1.0000 -15.5000
v  11.5000 -0.0000 -15.5000
v  12.5000 1.0000 -15.5000
v  12.5000 2.0000 -15.5000
v  -11.5000 0.0000 14.5000
v  -10.5000 0.0000 14.5000
v  -0.5000 0.0000 14.5000
v  0.5000 0.0000 14.5000
v  10.5000 0.0000 14.5000
v  11.5000 0.0000 14.5000
v  -11.5000 0.0000 12.5000
v  11.5000 0.0000 12.5000
v  -11.5000 0.0000 11.5000
v  -10.5000 0.0000 11.5000
v  -0.5000 0.0000 11.5000
v  0.5000 0.0000 11.5000
v  10.5000 0.0000 11.5000
v  11.5000 0.0000 11.5000
v  -0.5000 0.0000 -0.5000
v  0.5000 0.0000 -0.5000
v  -10.5000 -0.0000 -10.5000
v  10.5000 -0.0000 -10.5000
v  -11.5000 -0.0000 -11.5000
v  11.5000 -0.0000 -11.5000
v  -11.5000 -0.0000 -12.5000
v  11.5000 -0.0000 -12.5000
v  -0.5000 1.0000 -0.5000
v  0.5000 1.0000 -0.5000
v  -10.5000 1.0000 -10.5000
v  10.5000 1.0000 -10.5000
v  -12.5000 2.0000 -12.5000
v  12.5000 2.0000 -12.5000
# 94 vertices

vn -1.0000 0.0000 -0.0000
vn 1.0000 0.0000 -0.0000
vn 0.0000 0.0000 1.0000
vn 0.0000 -0.0000 -1.0000
vn 0.0000 -1.0000 0.0000
vn 0.0000 1.0000 -0.0000
# 6 vertex normals

vt 0.9707 0.5000 0.0000
vt 0.0449 0.5000 0.0000
vt 0.9902 0.5000 0.0000
vt 0.9590 0.5000 0.0000
vt 0.9746 0.5000 0.0000
# 5 texture coords

o TJunction
g TJunction
usemtl palette
s 1
f 1/1/1 2/1/1 3/1/1 
f 1/2/1 4/2/1 2/2/1 
f 5/3/1 6/3/1 4/3/1 
f 5/2/1 4/2/1 1/2/1 
f 7/4/1 8/4/1 6/4/1 
f 7/3/1 6/3/1 5/3/1 
f 9/3/1 10/3/1 8/3/1 
f 9/4/1 8/4/1 7/4/1 
f 11/2/1 12/2/1 10/2/1 
f 11/3/1 10/3/1 9/3/1 
f 13/1/1 14/1/1 12/1/1 
f 13/2/1 12/2/1 11/2/1 
f 15/5/1 3/5/1 16/5/1 
f 17/1/1 1/1/1 3/1/1 
f 17/5/1 3/5/1 15/5/1 
f 18/1/1 1/1/1 17/1/1 
f 19/1/1 14/1/1 13/1/1 
f 20/5/1 21/5/1 14/5/1 
f 20/1/1 14/1/1 19/1/1 
f 22/5/1 21/5/1 20/5/1 
f 23/1/1 24/1/1 25/1/1 
f 26/1/1 24/1/1 23/1/1 
f 27/1/2 28/1/2 29/1/2 
f 29/1/2 28/1/2 30/1/2 
f 31/1/2 32/1/2 33/1/2 
f 32/2/2 34/2/2 33/2/2 
f 34/3/2 35/3/2 36/3/2 
f 33/2/2 34/2/2 36/2/2 
f 35/4/2 37/4/2 38/4/2 
f 36/3/2 35/3/2 38/3/2 
f 37/3/2 39/3/2 40/3/2 
f 38/4/2 37/4/2 40/4/2 
f 39/2/2 41/2/2 42/2/2 
f 40/3/2 39/3/2 42/3/2 
f 41/1/2 43/1/2 44/1/2 
f 42/2/2 41/2/2 44/2/2 
f 45/5/2 31/5/2 46/5/2 
f 31/1/2 33/1/2 47/1/2 
f 46/5/2 31/5/2 47/5/2 
f 47/1/2 33/1/2 48/1/2 
f 44/1/2 43/1/2 49/1/2 
f 43/5/2 50/5/2 51/5/2 
f 49/1/2 43/1/2 51/1/2 
f 51/5/2 50/5/2 52/5/2 
f 45/5/3 15/5/3 16/5/3 
f 46/5/3 15/5/3 45/5/3 
f 27/1/3 19/1/3 13/1/3 
f 29/1/3 19/1/3 27/1/3 
f 44/1/3 23/1/3 25/1/3 
f 49/1/3 23/1/3 44/1/3 
f 1/1/4 18/1/4 33/1/4 
f 33/1/4 18/1/4 48/1/4 
f 21/5/4 22/5/4 53/5/4 
f 53/5/4 22/5/4 54/5/4 
f 21/5/4 53/5/4 55/5/4 
f 53/1/4 54/1/4 28/1/4 
f 55/5/4 53/5/4 28/5/4 
f 28/1/4 54/1/4 30/1/4 
f 55/2/4 28/2/4 56/2/4 
f 56/2/4 28/2/4 57/2/4 
f 56/3/4 57/3/4 58/3/4 
f 58/3/4 57/3/4 59/3/4 
f 58/4/4 59/4/4 60/4/4 
f 60/4/4 59/4/4 61/4/4 
f 60/3/4 61/3/4 62/3/4 
f 62/3/4 61/3/4 63/3/4 
f 62/2/4 63/2/4 64/2/4 
f 64/2/4 63/2/4 24/2/4 
f 64/5/4 24/5/4 65/5/4 
f 24/1/4 26/1/4 65/1/4 
f 65/1/4 26/1/4 66/1/4 
f 64/5/4 65/5/4 50/5/4 
f 65/5/4 66/5/4 50/5/4 
f 50/5/4 66/5/4 52/5/4 
f 67/5/5 45/5/5 16/5/5 
f 68/5/5 45/5/5 67/5/5 
f 69/5/5 45/5/5 68/5/5 
f 70/5/5 45/5/5 69/5/5 
f 71/5/5 45/5/5 70/5/5 
f 72/5/5 45/5/5 71/5/5 
f 3/5/5 67/5/5 16/5/5 
f 73/2/5 68/2/5 67/2/5 
f 73/5/5 67/5/5 3/5/5 
f 74/5/5 45/5/5 72/5/5 
f 74/2/5 72/2/5 71/2/5 
f 31/5/5 45/5/5 74/5/5 
f 2/1/5 73/1/5 3/1/5 
f 75/2/5 68/2/5 73/2/5 
f 75/1/5 73/1/5 2/1/5 
f 76/3/5 69/3/5 68/3/5 
f 76/2/5 68/2/5 75/2/5 
f 77/4/5 70/4/5 69/4/5 
f 77/3/5 69/3/5 76/3/5 
f 78/3/5 71/3/5 70/3/5 
f 78/4/5 70/4/5 77/4/5 
f 79/2/5 74/2/5 71/2/5 
f 79/3/5 71/3/5 78/3/5 
f 80/1/5 31/1/5 74/1/5 
f 80/2/5 74/2/5 79/2/5 
f 32/1/5 31/1/5 80/1/5 
f 4/2/5 75/2/5 2/2/5 
f 4/2/5 76/2/5 75/2/5 
f 4/2/5 32/2/5 80/2/5 
f 4/2/5 80/2/5 79/2/5 
f 4/2/5 79/2/5 78/2/5 
f 4/2/5 78/2/5 77/2/5 
f 4/2/5 77/2/5 76/2/5 
f 34/2/5 32/2/5 4/2/5 
f 6/3/5 34/3/5 4/3/5 
f 35/3/5 34/3/5 6/3/5 
f 8/4/5 35/4/5 6/4/5 
f 81/4/5 35/4/5 8/4/5 
f 82/4/5 35/4/5 81/4/5 
f 37/4/5 35/4/5 82/4/5 
f 10/3/5 81/3/5 8/3/5 
f 83/3/5 81/3/5 10/3/5 
f 84/3/5 37/3/5 82/3/5 
f 39/3/5 37/3/5 84/3/5 
f 12/2/5 83/2/5 10/2/5 
f 85/2/5 83/2/5 12/2/5 
f 86/2/5 39/2/5 84/2/5 
f 41/2/5 39/2/5 86/2/5 
f 14/1/5 85/1/5 12/1/5 
f 87/2/5 83/2/5 85/2/5 
f 87/1/5 85/1/5 14/1/5 
f 88/2/5 86/2/5 84/2/5 
f 88/1/5 41/1/5 86/1/5 
f 43/1/5 41/1/5 88/1/5 
f 21/5/5 87/5/5 14/5/5 
f 55/2/5 83/2/5 87/2/5 
f 55/5/5 87/5/5 21/5/5 
f 56/3/5 81/3/5 83/3/5 
f 56/2/5 83/2/5 55/2/5 
f 58/4/5 82/4/5 81/4/5 
f 58/3/5 81/3/5 56/3/5 
f 60/3/5 84/3/5 82/3/5 
f 60/4/5 82/4/5 58/4/5 
f 62/2/5 88/2/5 84/2/5 
f 62/3/5 84/3/5 60/3/5 
f 64/5/5 43/5/5 88/5/5 
f 64/2/5 88/2/5 62/2/5 
f 50/5/5 43/5/5 64/5/5 
f 1/2/6 33/2/6 5/2/6 
f 5/2/6 33/2/6 36/2/6 
f 5/3/6 36/3/6 7/3/6 
f 7/3/6 36/3/6 38/3/6 
f 7/4/6 38/4/6 9/4/6 
f 9/4/6 38/4/6 89/4/6 
f 89/4/6 38/4/6 90/4/6 
f 90/4/6 38/4/6 40/4/6 
f 9/3/6 89/3/6 11/3/6 
f 11/3/6 89/3/6 91/3/6 
f 90/3/6 40/3/6 92/3/6 
f 92/3/6 40/3/6 42/3/6 
f 11/2/6 91/2/6 13/2/6 
f 13/2/6 91/2/6 27/2/6 
f 92/2/6 42/2/6 25/2/6 
f 25/2/6 42/2/6 44/2/6 
f 27/2/6 91/2/6 28/2/6 
f 91/3/6 89/3/6 57/3/6 
f 28/2/6 91/2/6 57/2/6 
f 89/4/6 90/4/6 59/4/6 
f 57/3/6 89/3/6 59/3/6 
f 90/3/6 92/3/6 61/3/6 
f 59/4/6 90/4/6 61/4/6 
f 92/2/6 25/2/6 63/2/6 
f 61/3/6 92/3/6 63/3/6 
f 63/2/6 25/2/6 24/2/6 
f 15/5/6 46/5/6 17/5/6 
f 17/5/6 46/5/6 47/5/6 
f 17/1/6 47/1/6 18/1/6 
f 18/1/6 47/1/6 48/1/6 
f 19/1/6 29/1/6 20/1/6 
f 20/1/6 29/1/6 93/1/6 
f 23/1/6 49/1/6 94/1/6 
f 94/1/6 49/1/6 51/1/6 
f 20/5/6 93/5/6 22/5/6 
f 93/1/6 29/1/6 54/1/6 
f 22/5/6 93/5/6 54/5/6 
f 54/1/6 29/1/6 30/1/6 
f 23/1/6 94/1/6 26/1/6 
f 94/5/6 51/5/6 66/5/6 
f 26/1/6 94/1/6 66/1/6 
f 66/5/6 51/5/6 52/5/6 
# 0 polygons - 184 triangles

